<svg width="164" height="122" viewBox="0 0 164 122" fill="none" xmlns="http://www.w3.org/2000/svg">
<path d="M59 50.6077C51 55.2265 51 66.7735 59 71.3923L134 114.694C142 119.312 152 113.539 152 104.301V17.6987C152 8.46111 142 2.68763 134 7.30643L59 50.6077Z" fill="black"/>
<g filter="url(#filter0_i)">
<path d="M142.5 55H64V61C64.0117 62.3351 64.6785 63.6652 66 64.4282L136.5 105.17C139.167 106.71 142.5 104.785 142.5 101.706V55Z" fill="#0300AC"/>
</g>
<g filter="url(#filter1_i)">
<path d="M66 51.5355C63.3333 53.0751 63.3333 56.9241 66 58.4637L136.5 99.1668C139.167 100.706 142.5 98.782 142.5 95.7028V14.2964C142.5 11.2172 139.167 9.29266 136.5 10.8323L66 51.5355Z" fill="#0500FD"/>
</g>
<defs>
<filter id="filter0_i" x="64" y="53" width="78.5" height="52.7119" filterUnits="userSpaceOnUse" color-interpolation-filters="sRGB">
<feFlood flood-opacity="0" result="BackgroundImageFix"/>
<feBlend mode="normal" in="SourceGraphic" in2="BackgroundImageFix" result="shape"/>
<feColorMatrix in="SourceAlpha" type="matrix" values="0 0 0 0 0 0 0 0 0 0 0 0 0 0 0 0 0 0 127 0" result="hardAlpha"/>
<feOffset dy="-2"/>
<feGaussianBlur stdDeviation="3"/>
<feComposite in2="hardAlpha" operator="arithmetic" k2="-1" k3="1"/>
<feColorMatrix type="matrix" values="0 0 0 0 0 0 0 0 0 0 0 0 0 0 0 0 0 0 0.2 0"/>
<feBlend mode="normal" in2="shape" result="effect1_innerShadow"/>
</filter>
<filter id="filter1_i" x="64" y="10.29" width="78.5" height="89.4183" filterUnits="userSpaceOnUse" color-interpolation-filters="sRGB">
<feFlood flood-opacity="0" result="BackgroundImageFix"/>
<feBlend mode="normal" in="SourceGraphic" in2="BackgroundImageFix" result="shape"/>
<feColorMatrix in="SourceAlpha" type="matrix" values="0 0 0 0 0 0 0 0 0 0 0 0 0 0 0 0 0 0 127 0" result="hardAlpha"/>
<feOffset/>
<feGaussianBlur stdDeviation="8"/>
<feComposite in2="hardAlpha" operator="arithmetic" k2="-1" k3="1"/>
<feColorMatrix type="matrix" values="0 0 0 0 1 0 0 0 0 1 0 0 0 0 1 0 0 0 0.25 0"/>
<feBlend mode="normal" in2="shape" result="effect1_innerShadow"/>
</filter>
</defs>
</svg>
