<svg width="164" height="122" viewBox="0 0 164 122" fill="none" xmlns="http://www.w3.org/2000/svg">
<path d="M105 50.6077C113 55.2265 113 66.7735 105 71.3923L30 114.694C22 119.312 12 113.539 12 104.301V17.6987C12 8.46111 22 2.68763 30 7.30643L105 50.6077Z" fill="black"/>
<g filter="url(#filter0_i)">
<path d="M21.5 45.0021H100V61C99.9883 62.3351 99.3215 63.6652 98 64.4282L27.5 105.17C24.8333 106.71 21.5 104.785 21.5 101.706V45.0021Z" fill="#0300AC"/>
</g>
<g filter="url(#filter1_i)">
<path d="M98 41.5355C100.667 43.0751 100.667 46.9241 98 48.4637L27.5 89.1668C24.8333 90.7065 21.5 88.782 21.5 85.7028V4.29637C21.5 1.21717 24.8333 -0.707335 27.5 0.832266L98 41.5355Z" fill="#0500FD"/>
</g>
<path d="M105 50.6077C113 55.2265 113 66.7735 105 71.3923L30 114.694C22 119.312 12 113.539 12 104.301V17.6987C12 8.46111 22 2.68763 30 7.30643L105 50.6077Z" fill="black"/>
<g filter="url(#filter2_i)">
<path d="M21.5 45.0021H100V61C99.9883 62.3351 99.3215 63.6652 98 64.4282L27.5 105.17C24.8333 106.71 21.5 104.785 21.5 101.706V45.0021Z" fill="#0300AC"/>
</g>
<g filter="url(#filter3_i)">
<path d="M98 41.5355C100.667 43.0751 100.667 46.9241 98 48.4637L27.5 89.1668C24.8333 90.7064 21.5 88.7819 21.5 85.7027V4.29637C21.5 1.21717 24.8333 -0.707335 27.5 0.832266L98 41.5355Z" fill="#0500FD"/>
</g>
<defs>
<filter id="filter0_i" x="21.5" y="43.002" width="78.5" height="62.7098" filterUnits="userSpaceOnUse" color-interpolation-filters="sRGB">
<feFlood flood-opacity="0" result="BackgroundImageFix"/>
<feBlend mode="normal" in="SourceGraphic" in2="BackgroundImageFix" result="shape"/>
<feColorMatrix in="SourceAlpha" type="matrix" values="0 0 0 0 0 0 0 0 0 0 0 0 0 0 0 0 0 0 127 0" result="hardAlpha"/>
<feOffset dy="-2"/>
<feGaussianBlur stdDeviation="3"/>
<feComposite in2="hardAlpha" operator="arithmetic" k2="-1" k3="1"/>
<feColorMatrix type="matrix" values="0 0 0 0 0 0 0 0 0 0 0 0 0 0 0 0 0 0 0.2 0"/>
<feBlend mode="normal" in2="shape" result="effect1_innerShadow"/>
</filter>
<filter id="filter1_i" x="21.5" y="0.290039" width="78.5" height="89.4183" filterUnits="userSpaceOnUse" color-interpolation-filters="sRGB">
<feFlood flood-opacity="0" result="BackgroundImageFix"/>
<feBlend mode="normal" in="SourceGraphic" in2="BackgroundImageFix" result="shape"/>
<feColorMatrix in="SourceAlpha" type="matrix" values="0 0 0 0 0 0 0 0 0 0 0 0 0 0 0 0 0 0 127 0" result="hardAlpha"/>
<feOffset/>
<feGaussianBlur stdDeviation="8"/>
<feComposite in2="hardAlpha" operator="arithmetic" k2="-1" k3="1"/>
<feColorMatrix type="matrix" values="0 0 0 0 1 0 0 0 0 1 0 0 0 0 1 0 0 0 0.25 0"/>
<feBlend mode="normal" in2="shape" result="effect1_innerShadow"/>
</filter>
<filter id="filter2_i" x="21.5" y="43.002" width="78.5" height="62.7098" filterUnits="userSpaceOnUse" color-interpolation-filters="sRGB">
<feFlood flood-opacity="0" result="BackgroundImageFix"/>
<feBlend mode="normal" in="SourceGraphic" in2="BackgroundImageFix" result="shape"/>
<feColorMatrix in="SourceAlpha" type="matrix" values="0 0 0 0 0 0 0 0 0 0 0 0 0 0 0 0 0 0 127 0" result="hardAlpha"/>
<feOffset dy="-2"/>
<feGaussianBlur stdDeviation="3"/>
<feComposite in2="hardAlpha" operator="arithmetic" k2="-1" k3="1"/>
<feColorMatrix type="matrix" values="0 0 0 0 0 0 0 0 0 0 0 0 0 0 0 0 0 0 0.2 0"/>
<feBlend mode="normal" in2="shape" result="effect1_innerShadow"/>
</filter>
<filter id="filter3_i" x="21.5" y="0.290039" width="78.5" height="89.4183" filterUnits="userSpaceOnUse" color-interpolation-filters="sRGB">
<feFlood flood-opacity="0" result="BackgroundImageFix"/>
<feBlend mode="normal" in="SourceGraphic" in2="BackgroundImageFix" result="shape"/>
<feColorMatrix in="SourceAlpha" type="matrix" values="0 0 0 0 0 0 0 0 0 0 0 0 0 0 0 0 0 0 127 0" result="hardAlpha"/>
<feOffset/>
<feGaussianBlur stdDeviation="8"/>
<feComposite in2="hardAlpha" operator="arithmetic" k2="-1" k3="1"/>
<feColorMatrix type="matrix" values="0 0 0 0 1 0 0 0 0 1 0 0 0 0 1 0 0 0 0.25 0"/>
<feBlend mode="normal" in2="shape" result="effect1_innerShadow"/>
</filter>
</defs>
</svg>
