<svg width="122" height="122" viewBox="0 0 122 122" fill="none" xmlns="http://www.w3.org/2000/svg">
<path d="M17 50.6077C8.99999 55.2265 9.00001 66.7735 17 71.3923L92 114.694C100 119.312 110 113.539 110 104.301V17.6987C110 8.46113 100 2.68765 92 7.30645L17 50.6077Z" fill="black"/>
<g filter="url(#filter0_i)">
<path d="M100.5 55H22V61C22.0117 62.3351 22.6785 63.6652 24 64.4282L94.5 105.17C97.1667 106.71 100.5 104.785 100.5 101.706V55Z" fill="#AF8900"/>
</g>
<g filter="url(#filter1_i)">
<path d="M24 51.5355C21.3333 53.0751 21.3333 56.9241 24 58.4637L94.5 99.1668C97.1667 100.706 100.5 98.7819 100.5 95.7027V14.2964C100.5 11.2172 97.1667 9.29266 94.5 10.8323L24 51.5355Z" fill="#FDC500"/>
</g>
<defs>
<filter id="filter0_i" x="22" y="53" width="78.5" height="52.712" filterUnits="userSpaceOnUse" color-interpolation-filters="sRGB">
<feFlood flood-opacity="0" result="BackgroundImageFix"/>
<feBlend mode="normal" in="SourceGraphic" in2="BackgroundImageFix" result="shape"/>
<feColorMatrix in="SourceAlpha" type="matrix" values="0 0 0 0 0 0 0 0 0 0 0 0 0 0 0 0 0 0 127 0" result="hardAlpha"/>
<feOffset dy="-2"/>
<feGaussianBlur stdDeviation="3"/>
<feComposite in2="hardAlpha" operator="arithmetic" k2="-1" k3="1"/>
<feColorMatrix type="matrix" values="0 0 0 0 0 0 0 0 0 0 0 0 0 0 0 0 0 0 0.2 0"/>
<feBlend mode="normal" in2="shape" result="effect1_innerShadow"/>
</filter>
<filter id="filter1_i" x="22" y="10.2904" width="78.5" height="89.4181" filterUnits="userSpaceOnUse" color-interpolation-filters="sRGB">
<feFlood flood-opacity="0" result="BackgroundImageFix"/>
<feBlend mode="normal" in="SourceGraphic" in2="BackgroundImageFix" result="shape"/>
<feColorMatrix in="SourceAlpha" type="matrix" values="0 0 0 0 0 0 0 0 0 0 0 0 0 0 0 0 0 0 127 0" result="hardAlpha"/>
<feOffset/>
<feGaussianBlur stdDeviation="8"/>
<feComposite in2="hardAlpha" operator="arithmetic" k2="-1" k3="1"/>
<feColorMatrix type="matrix" values="0 0 0 0 1 0 0 0 0 1 0 0 0 0 1 0 0 0 0.4 0"/>
<feBlend mode="normal" in2="shape" result="effect1_innerShadow"/>
</filter>
</defs>
</svg>
