<svg width="122" height="122" viewBox="0 0 122 122" fill="none" xmlns="http://www.w3.org/2000/svg">
<path d="M105 50.6077C113 55.2265 113 66.7735 105 71.3923L30 114.694C22 119.312 12 113.539 12 104.301V17.6987C12 8.4611 22 2.68762 30 7.30642L105 50.6077Z" fill="black"/>
<g filter="url(#filter0_i)">
<path d="M21.5 55H100V61C99.9883 62.3351 99.3215 63.6652 98 64.4282L27.5 105.17C24.8333 106.71 21.5 104.785 21.5 101.706V55Z" fill="#AF8900"/>
</g>
<g filter="url(#filter1_i)">
<path d="M98 51.5355C100.667 53.0751 100.667 56.9241 98 58.4637L27.5 99.1668C24.8333 100.706 21.5 98.7819 21.5 95.7027V14.2964C21.5 11.2172 24.8333 9.29265 27.5 10.8323L98 51.5355Z" fill="#FDC500"/>
</g>
<defs>
<filter id="filter0_i" x="21.5" y="53" width="78.5" height="52.712" filterUnits="userSpaceOnUse" color-interpolation-filters="sRGB">
<feFlood flood-opacity="0" result="BackgroundImageFix"/>
<feBlend mode="normal" in="SourceGraphic" in2="BackgroundImageFix" result="shape"/>
<feColorMatrix in="SourceAlpha" type="matrix" values="0 0 0 0 0 0 0 0 0 0 0 0 0 0 0 0 0 0 127 0" result="hardAlpha"/>
<feOffset dy="-2"/>
<feGaussianBlur stdDeviation="3"/>
<feComposite in2="hardAlpha" operator="arithmetic" k2="-1" k3="1"/>
<feColorMatrix type="matrix" values="0 0 0 0 0 0 0 0 0 0 0 0 0 0 0 0 0 0 0.2 0"/>
<feBlend mode="normal" in2="shape" result="effect1_innerShadow"/>
</filter>
<filter id="filter1_i" x="21.5" y="10.2904" width="78.5" height="89.4181" filterUnits="userSpaceOnUse" color-interpolation-filters="sRGB">
<feFlood flood-opacity="0" result="BackgroundImageFix"/>
<feBlend mode="normal" in="SourceGraphic" in2="BackgroundImageFix" result="shape"/>
<feColorMatrix in="SourceAlpha" type="matrix" values="0 0 0 0 0 0 0 0 0 0 0 0 0 0 0 0 0 0 127 0" result="hardAlpha"/>
<feOffset/>
<feGaussianBlur stdDeviation="8"/>
<feComposite in2="hardAlpha" operator="arithmetic" k2="-1" k3="1"/>
<feColorMatrix type="matrix" values="0 0 0 0 1 0 0 0 0 1 0 0 0 0 1 0 0 0 0.4 0"/>
<feBlend mode="normal" in2="shape" result="effect1_innerShadow"/>
</filter>
</defs>
</svg>
